HIERARCHY
ROOT Hips
{
  OFFSET 5.72205e-005 65.662 3.42586
  CHANNELS 6 Xposition Yposition Zposition Zrotation Xrotation Yrotation
  JOINT Chest
  {
    OFFSET 0 8.7983 -4.7612
    CHANNELS 3 Zrotation Xrotation Yrotation
    JOINT Chest2
    {
      OFFSET 0 8.0291 0.4195
      CHANNELS 3 Zrotation Xrotation Yrotation
      JOINT Chest3
      {
        OFFSET 0 9.9351 -2.2114
        CHANNELS 3 Zrotation Xrotation Yrotation
        JOINT Neck
        {
          OFFSET 0 22.3885 -0.4656
          CHANNELS 3 Zrotation Xrotation Yrotation
          JOINT Head
          {
            OFFSET -0.0001 12.643 3.4389
            CHANNELS 3 Zrotation Xrotation Yrotation
            End Site
            {
              OFFSET 0.0001 17.6655 0.5274
            }
          }
        }
        JOINT LeftCollar
        {
          OFFSET 2.2603 21.606 7.4023
          CHANNELS 3 Zrotation Xrotation Yrotation
          JOINT LeftShoulder
          {
            OFFSET 13.5163 -1.1332 -5.0146
            CHANNELS 3 Zrotation Xrotation Yrotation
            JOINT LeftElbow
            {
              OFFSET -0.0995 -28.05 -0.2431
              CHANNELS 3 Zrotation Xrotation Yrotation
              JOINT LeftWrist
              {
                OFFSET 0.0679 -23.3996 -0.1402
                CHANNELS 3 Zrotation Xrotation Yrotation
                JOINT LeftFinger1
                {
                  OFFSET 0.7932 -9.069 2.5189
                  CHANNELS 3 Zrotation Xrotation Yrotation
                  JOINT LeftFinger11
                  {
                    OFFSET -0.8272 -3.3923 0.5977
                    CHANNELS 3 Zrotation Xrotation Yrotation
                    JOINT LeftFinger12
                    {
                      OFFSET -0.5649 -2.3158 0.4082
                      CHANNELS 3 Zrotation Xrotation Yrotation
                      End Site
                      {
                        OFFSET -0.4919 -1.6479 0.2673
                      }
                    }
                  }
                }
                JOINT LeftFinger2
                {
                  OFFSET 0.9159 -9.2044 0.2193
                  CHANNELS 3 Zrotation Xrotation Yrotation
                  JOINT LeftFinger21
                  {
                    OFFSET 0.0117 -4.1944 -0.0248
                    CHANNELS 3 Zrotation Xrotation Yrotation
                    JOINT LeftFinger22
                    {
                      OFFSET 0.0071 -2.3249 -0.0142
                      CHANNELS 3 Zrotation Xrotation Yrotation
                      End Site
                      {
                        OFFSET -0.1475 -2.0882 0.0028
                      }
                    }
                  }
                }
                JOINT LeftFinger3
                {
                  OFFSET 0.6113 -8.7231 -2.0637
                  CHANNELS 3 Zrotation Xrotation Yrotation
                  JOINT LeftFinger31
                  {
                    OFFSET -0.1927 -3.8059 -0.2383
                    CHANNELS 3 Zrotation Xrotation Yrotation
                    JOINT LeftFinger32
                    {
                      OFFSET -0.1091 -2.1688 -0.1362
                      CHANNELS 3 Zrotation Xrotation Yrotation
                      End Site
                      {
                        OFFSET -0.2358 -1.9176 -0.0906
                      }
                    }
                  }
                }
                JOINT LeftFinger4
                {
                  OFFSET -0.6151 -8.0947 -3.5641
                  CHANNELS 3 Zrotation Xrotation Yrotation
                  JOINT LeftFinger41
                  {
                    OFFSET -0.4882 -2.341 -0.6462
                    CHANNELS 3 Zrotation Xrotation Yrotation
                    JOINT LeftFinger42
                    {
                      OFFSET -0.3575 -1.7167 -0.4742
                      CHANNELS 3 Zrotation Xrotation Yrotation
                      End Site
                      {
                        OFFSET -0.4187 -1.5237 -0.3496
                      }
                    }
                  }
                }
                JOINT LeftFinger0
                {
                  OFFSET -1.42 -1.8761 1.4223
                  CHANNELS 3 Zrotation Xrotation Yrotation
                  JOINT LeftFinger01
                  {
                    OFFSET -1.1471 -3.4929 2.6334
                    CHANNELS 3 Zrotation Xrotation Yrotation
                    JOINT LeftFinger02
                    {
                      OFFSET -0.823 -2.3 1.6571
                      CHANNELS 3 Zrotation Xrotation Yrotation
                      End Site
                      {
                        OFFSET -0.5822 -1.6914 1.1582
                      }
                    }
                  }
                }
              }
            }
          }
        }
        JOINT RightCollar
        {
          OFFSET -2.2603 21.606 7.4023
          CHANNELS 3 Zrotation Xrotation Yrotation
          JOINT RightShoulder
          {
            OFFSET -13.5187 -1.1334 -5.0155
            CHANNELS 3 Zrotation Xrotation Yrotation
            JOINT RightElbow
            {
              OFFSET 0.0994 -28.0499 -0.2431
              CHANNELS 3 Zrotation Xrotation Yrotation
              JOINT RightWrist
              {
                OFFSET -0.0679 -23.3996 -0.1402
                CHANNELS 3 Zrotation Xrotation Yrotation
                JOINT RightFinger1
                {
                  OFFSET -0.7932 -9.0691 2.5189
                  CHANNELS 3 Zrotation Xrotation Yrotation
                  JOINT RightFinger11
                  {
                    OFFSET 0.8272 -3.3923 0.5977
                    CHANNELS 3 Zrotation Xrotation Yrotation
                    JOINT RightFinger12
                    {
                      OFFSET 0.565 -2.3158 0.4082
                      CHANNELS 3 Zrotation Xrotation Yrotation
                      End Site
                      {
                        OFFSET 0.4919 -1.6479 0.2673
                      }
                    }
                  }
                }
                JOINT RightFinger2
                {
                  OFFSET -0.916 -9.2044 0.2193
                  CHANNELS 3 Zrotation Xrotation Yrotation
                  JOINT RightFinger21
                  {
                    OFFSET -0.0117 -4.1944 -0.0248
                    CHANNELS 3 Zrotation Xrotation Yrotation
                    JOINT RightFinger22
                    {
                      OFFSET -0.0071 -2.3249 -0.0142
                      CHANNELS 3 Zrotation Xrotation Yrotation
                      End Site
                      {
                        OFFSET 0.1475 -2.0882 0.0028
                      }
                    }
                  }
                }
                JOINT RightFinger3
                {
                  OFFSET -0.6113 -8.7231 -2.0637
                  CHANNELS 3 Zrotation Xrotation Yrotation
                  JOINT RightFinger31
                  {
                    OFFSET 0.1927 -3.8059 -0.2383
                    CHANNELS 3 Zrotation Xrotation Yrotation
                    JOINT RightFinger32
                    {
                      OFFSET 0.1091 -2.1688 -0.1362
                      CHANNELS 3 Zrotation Xrotation Yrotation
                      End Site
                      {
                        OFFSET 0.2358 -1.9176 -0.0906
                      }
                    }
                  }
                }
                JOINT RightFinger4
                {
                  OFFSET 0.6151 -8.0947 -3.564
                  CHANNELS 3 Zrotation Xrotation Yrotation
                  JOINT RightFinger41
                  {
                    OFFSET 0.4882 -2.341 -0.6462
                    CHANNELS 3 Zrotation Xrotation Yrotation
                    JOINT RightFinger42
                    {
                      OFFSET 0.3574 -1.7166 -0.4742
                      CHANNELS 3 Zrotation Xrotation Yrotation
                      End Site
                      {
                        OFFSET 0.4187 -1.5237 -0.3496
                      }
                    }
                  }
                }
                JOINT RightFinger0
                {
                  OFFSET 1.4199 -1.8761 1.4221
                  CHANNELS 3 Zrotation Xrotation Yrotation
                  JOINT RightFinger01
                  {
                    OFFSET 1.1472 -3.4929 2.6336
                    CHANNELS 3 Zrotation Xrotation Yrotation
                    JOINT RightFinger02
                    {
                      OFFSET 0.8229 -2.3 1.6571
                      CHANNELS 3 Zrotation Xrotation Yrotation
                      End Site
                      {
                        OFFSET 0.5822 -1.6914 1.1582
                      }
                    }
                  }
                }
              }
            }
          }
        }
      }
    }
  }
  JOINT RightHip
  {
    OFFSET -9.412 3.9771 -0.7758
    CHANNELS 3 Zrotation Xrotation Yrotation
    JOINT RightKnee
    {
      OFFSET -0.7531 -40.938 0
      CHANNELS 3 Zrotation Xrotation Yrotation
      JOINT RightAnkle
      {
        OFFSET 0 -40.1986 0
        CHANNELS 3 Zrotation Xrotation Yrotation
        JOINT RightToe
        {
          OFFSET 0 -4.4182 9.239
          CHANNELS 3 Zrotation Xrotation Yrotation
          End Site
          {
            OFFSET 0 0 6.1981
          }
        }
      }
    }
  }
  JOINT LeftHip
  {
    OFFSET 9.4119 3.9773 -0.7758
    CHANNELS 3 Zrotation Xrotation Yrotation
    JOINT LeftKnee
    {
      OFFSET 0.7532 -40.9383 0
      CHANNELS 3 Zrotation Xrotation Yrotation
      JOINT LeftAnkle
      {
        OFFSET 0 -40.1986 0
        CHANNELS 3 Zrotation Xrotation Yrotation
        JOINT LeftToe
        {
          OFFSET 0 -4.4182 9.239
          CHANNELS 3 Zrotation Xrotation Yrotation
          End Site
          {
            OFFSET 0 0 6.1981
          }
        }
      }
    }
  }
}
MOTION
Frames:	4
Frame Time:	0.0333333
13.5814 0.725204 23.3759 -49.6974 61.9718 46.1439 -1.3745 3.30682 0.217975 -2.76859 6.60745 0.516783 -2.7686 6.60748 0.516789 3.33376e-005 -24.0064 -8.07663e-006 -2.89073 2.56134 -27.9424 -31.4896 13.2526 -5.61069 65.5237 -14.621 62.3131 -168.775 -51.399 149.865 24.3454 -46.2439 -13.7281 -9.63249e-006 -8.55603e-006 -4.91486e-006 -7.95139e-016 1.59028e-015 3.97569e-016 -7.95139e-016 3.18055e-015 5.96354e-016 -9.63249e-006 -8.55603e-006 -4.91486e-006 -0.0128208 0.00233236 9.17482e-005 3.18055e-015 1.59028e-015 9.93923e-016 -9.63249e-006 -8.55603e-006 -4.91486e-006 -0.0160456 0.00299266 0.000858989 -5.48185e-007 2.2113e-006 7.62916e-006 -9.63249e-006 -8.55603e-006 -4.91486e-006 -0.0125938 0.00312895 0.00283631 7.95139e-016 -1.59028e-015 -1.78906e-015 -9.63249e-006 -8.55603e-006 -4.91486e-006 -7.95139e-016 1.59028e-015 3.97569e-016 -7.95139e-016 3.18055e-015 5.96354e-016 19.0987 14.206 5.57857 -67.771 -29.9378 -64.7252 -175.591 -72.3509 -135.69 8.93126 -4.02897 -24.3336 4.17667e-006 -5.56587e-006 -2.94755e-006 -3.18055e-015 1.59028e-015 5.56597e-015 6.36893e-007 -5.03371e-006 1.07799e-005 4.17667e-006 -5.56587e-006 -2.94755e-006 0.0129995 0.00232922 -8.3602e-005 -4.73499e-006 9.71593e-007 -2.50568e-006 4.17667e-006 -5.56587e-006 -2.94755e-006 0.016271 0.00302096 -0.000868204 -9.54166e-015 3.97569e-016 -2.38542e-015 4.17667e-006 -5.56587e-006 -2.94755e-006 0.014719 0.00370838 -0.00329469 3.18055e-015 0 -3.97569e-015 4.17667e-006 -5.56587e-006 -2.94755e-006 -3.18055e-015 1.59028e-015 5.56597e-015 6.36893e-007 -5.03371e-006 1.07799e-005 -98.3798 -26.2941 -85.4713 -177.32 69.2644 172.965 -7.16824 10.7063 -2.21561 2.53708e-006 2.12954e-005 -1.74281e-005 4.55603 6.89949 13.8212 -4.38533 15.4221 29.2897 5.18932 44.7738 -11.6935 -4.45776e-007 6.13549e-006 2.69541e-006 
13.5217 0.751396 23.2609 -49.6974 61.9718 46.144 -1.37452 3.30682 0.217972 -2.76859 6.60744 0.516784 -2.7686 6.60748 0.516788 3.16336e-005 -24.0064 -8.46477e-006 -2.91272 2.3929 -27.7602 -31.0282 12.9943 -5.66267 65.5237 -14.621 62.313 -168.775 -51.3989 149.865 24.2773 -45.7828 -13.6523 1.10348e-032 1.59028e-015 -3.97569e-016 -3.31043e-032 1.59028e-015 1.19271e-015 -7.95139e-016 3.18055e-015 -9.93923e-016 1.10348e-032 1.59028e-015 -3.97569e-016 -0.0128352 0.00232531 8.10306e-005 -7.72434e-032 1.11319e-014 3.97569e-016 1.10348e-032 1.59028e-015 -3.97569e-016 -0.0160409 0.00299381 0.000861366 -1.59028e-015 0 -3.97569e-016 1.10348e-032 1.59028e-015 -3.97569e-016 -0.0125795 0.00311228 0.00283003 7.95139e-016 -4.77083e-015 3.97569e-016 1.10348e-032 1.59028e-015 -3.97569e-016 -3.31043e-032 1.59028e-015 1.19271e-015 -7.95139e-016 3.18055e-015 -9.93923e-016 18.8023 13.9241 5.55563 -67.7709 -29.9378 -64.7252 -175.591 -72.3509 -135.69 9.01248 -3.77917 -24.5743 -1.75772e-006 1.2453e-006 1.15634e-006 6.36111e-015 1.02737e-006 -1.59028e-015 -8.10863e-007 -8.29595e-006 8.21093e-006 -1.75772e-006 1.2453e-006 1.15634e-006 0.0129298 0.00232131 -8.8613e-005 1.50327e-006 -1.00527e-005 1.08684e-006 -1.75772e-006 1.2453e-006 1.15634e-006 0.0163115 0.00303481 -0.000861625 -1.8968e-006 1.0968e-006 -1.41091e-005 -1.75772e-006 1.2453e-006 1.15634e-006 0.0145683 0.00366942 -0.00325722 3.18055e-015 -1.5685e-006 1.98785e-015 -1.75772e-006 1.2453e-006 1.15634e-006 6.36111e-015 1.02737e-006 -1.59028e-015 -8.10863e-007 -8.29595e-006 8.21093e-006 -98.38 -26.2932 -85.4703 -177.32 69.2644 172.966 -7.16759 10.7063 -2.21518 -5.84822e-006 7.02799e-006 -5.70659e-006 4.6129 6.81978 13.8262 -4.43447 15.5326 29.3021 5.18853 44.7168 -11.7117 -1.25112e-006 5.24266e-006 1.32754e-006 
13.4621 0.777596 23.1459 -49.6974 61.9718 46.144 -1.37451 3.30681 0.217974 -2.76859 6.60744 0.516781 -2.7686 6.60748 0.516791 3.389e-005 -24.0064 -1.04719e-005 -2.93416 2.22433 -27.5781 -30.5671 12.7354 -5.71252 65.5237 -14.621 62.3131 -168.775 -51.3989 149.865 24.2088 -45.3214 -13.5764 3.5624e-006 5.7357e-006 1.01583e-005 7.95139e-016 0 -7.95139e-016 7.95139e-016 0 1.98785e-016 3.5624e-006 5.7357e-006 1.01583e-005 -0.012828 0.00232324 8.33772e-005 1.59028e-015 -1.59028e-015 1.39149e-015 3.5624e-006 5.7357e-006 1.01583e-005 -0.0160649 0.00300565 0.000852919 -3.18055e-015 1.59028e-015 -5.96354e-016 3.5624e-006 5.7357e-006 1.01583e-005 -0.0125922 0.00312304 0.00282654 7.95139e-016 4.77083e-015 -7.95139e-016 3.5624e-006 5.7357e-006 1.01583e-005 7.95139e-016 0 -7.95139e-016 7.95139e-016 0 1.98785e-016 18.506 13.6422 5.53121 -67.771 -29.9378 -64.7252 -175.591 -72.3509 -135.69 9.09473 -3.52953 -24.8154 -3.63388e-006 -5.01614e-006 8.40491e-006 3.18055e-015 -1.19271e-015 2.78299e-015 2.48282e-032 -3.97569e-016 3.57812e-015 -3.63388e-006 -5.01614e-006 8.40491e-006 0.0129673 0.00232305 -8.33437e-005 -6.89673e-032 -1.98785e-015 -1.98785e-015 -3.63388e-006 -5.01614e-006 8.40491e-006 0.0162902 0.00303561 -0.000875503 -3.18055e-015 5.1684e-015 -2.38542e-015 -3.63388e-006 -5.01614e-006 8.40491e-006 0.0145743 0.00368149 -0.00326776 9.54166e-015 -7.95139e-016 -1.98785e-015 -3.63388e-006 -5.01614e-006 8.40491e-006 3.18055e-015 -1.19271e-015 2.78299e-015 2.48282e-032 -3.97569e-016 3.57812e-015 -98.3801 -26.2923 -85.4693 -177.32 69.2645 172.966 -7.16694 10.7065 -2.21472 1.09406e-005 -1.5086e-007 5.45185e-006 4.68448 6.69953 13.8305 -4.49409 15.7311 29.3171 5.16501 44.6189 -11.7225 -3.00282e-006 -3.25514e-007 6.805e-007 
13.4024 0.803802 23.0308 -49.6974 61.9718 46.144 -1.37451 3.30681 0.217974 -2.76859 6.60744 0.516781 -2.7686 6.60748 0.516791 3.389e-005 -24.0064 -1.04719e-005 -2.95509 2.05562 -27.396 -30.1063 12.4759 -5.76022 65.5237 -14.621 62.3131 -168.775 -51.3989 149.865 24.1399 -44.8596 -13.5002 7.95139e-016 1.59028e-015 1.11319e-014 2.38542e-015 3.18055e-015 1.11319e-014 3.97569e-015 1.59028e-015 1.33186e-014 7.95139e-016 1.59028e-015 1.11319e-014 -0.0128036 0.00233285 8.50267e-005 7.95139e-016 3.18055e-015 -3.97569e-016 7.95139e-016 1.59028e-015 1.11319e-014 -0.0160454 0.00300699 0.000865726 1.59028e-015 4.77083e-015 1.39149e-015 7.95139e-016 1.59028e-015 1.11319e-014 -0.0126086 0.00313307 0.00283114 2.38542e-015 0 1.23246e-014 7.95139e-016 1.59028e-015 1.11319e-014 2.38542e-015 3.18055e-015 1.11319e-014 3.97569e-015 1.59028e-015 1.33186e-014 18.2097 13.3602 5.50529 -67.771 -29.9378 -64.7252 -175.591 -72.3509 -135.69 9.17806 -3.28016 -25.057 -6.36111e-015 3.97569e-016 1.19271e-015 -3.18055e-015 7.95139e-016 4.37326e-015 -8.82781e-032 1.59028e-015 3.18055e-015 -6.36111e-015 3.97569e-016 1.19271e-015 0.0129242 0.00230826 -9.61007e-005 -9.54166e-015 0 4.37326e-015 -6.36111e-015 3.97569e-016 1.19271e-015 0.0164163 0.00304811 -0.000881915 -2.82522e-006 2.25688e-006 1.96546e-007 -6.36111e-015 3.97569e-016 1.19271e-015 0.0146996 0.0036987 -0.0032864 6.36111e-015 5.56597e-015 4.77083e-015 -6.36111e-015 3.97569e-016 1.19271e-015 -3.18055e-015 7.95139e-016 4.37326e-015 -8.82781e-032 1.59028e-015 3.18055e-015 -98.3802 -26.2916 -85.4683 -177.32 69.2646 172.967 -7.16632 10.7065 -2.2143 9.36439e-007 2.26541e-006 1.3344e-005 4.78357 6.47818 13.8478 -4.55807 16.1424 29.3251 5.08396 44.4268 -11.7208 -1.01551e-005 -1.50714e-005 -2.27994e-006 
